<svg width="302" height="26" viewBox="0 0 302 26" fill="none" xmlns="http://www.w3.org/2000/svg">
<path d="M1 11.8775C1 11.8775 17.0959 2.72281 60 10.5421C89.4179 15.9035 110 23.2105 133.5 16.1292" stroke="#535353" stroke-width="3"/>
<rect x="1" y="-1" width="23" height="23" rx="11.5" transform="matrix(1 0 0 -1 138.5 23.7207)" stroke="#535353" stroke-width="2"/>
<path d="M153.404 17.7629C152.714 20.1814 149.286 20.1814 148.596 17.7629L148.524 17.5097L148.268 17.5737C145.829 18.1853 144.115 15.2169 145.864 13.4098L146.047 13.2207L145.864 13.0316C144.115 11.2245 145.829 8.25615 148.268 8.86768L148.524 8.93169L148.596 8.67855C149.286 6.25998 152.714 6.25998 153.404 8.67855L153.476 8.93169L153.732 8.86768C156.171 8.25616 157.885 11.2245 156.136 13.0316L155.953 13.2207L156.136 13.4098C157.885 15.2169 156.171 18.1853 153.732 17.5737L153.476 17.5097L153.404 17.7629ZM155.616 12.8729L155.616 12.8735L155.616 12.8729ZM153.609 17.0442L153.609 17.045C153.609 17.0448 153.609 17.0445 153.609 17.0442L153.128 16.907L153.609 17.0442Z" stroke="#535353" stroke-width="3"/>
<path d="M301 11.8775C301 11.8775 284.904 2.72281 242 10.5421C212.582 15.9035 192 23.2105 168.5 16.1292" stroke="#535353" stroke-width="3"/>
</svg>
