<svg width="40" height="41" viewBox="0 0 40 41" fill="none" xmlns="http://www.w3.org/2000/svg">
<path d="M6.66665 35.7207C5.74998 35.7207 4.96554 35.3946 4.31331 34.7424C3.66109 34.0902 3.33442 33.3052 3.33331 32.3874V14.0541C3.33331 13.1374 3.65998 12.353 4.31331 11.7007C4.96665 11.0485 5.75109 10.7219 6.66665 10.7207H13.3333V7.38741C13.3333 6.47074 13.66 5.6863 14.3133 5.03408C14.9666 4.38185 15.7511 4.05519 16.6666 4.05408H23.3333C24.25 4.05408 25.035 4.38074 25.6883 5.03408C26.3416 5.68741 26.6678 6.47185 26.6666 7.38741V10.7207H33.3333C34.25 10.7207 35.035 11.0474 35.6883 11.7007C36.3416 12.3541 36.6678 13.1385 36.6666 14.0541V32.3874C36.6666 33.3041 36.3405 34.0891 35.6883 34.7424C35.0361 35.3957 34.2511 35.7219 33.3333 35.7207H6.66665ZM6.66665 32.3874H33.3333V14.0541H6.66665V32.3874ZM16.6666 10.7207H23.3333V7.38741H16.6666V10.7207Z" fill="#FF8AB3"/>
</svg>
