<svg width="302" height="26" viewBox="0 0 302 26" fill="none" xmlns="http://www.w3.org/2000/svg">
<path d="M1 14.7635C1 14.7635 15.6889 22.0517 32.684 17.7315C62.0793 10.2591 105.325 0.220737 133.5 14.7635" stroke="#535353" stroke-width="3"/>
<rect x="139.5" y="1.7207" width="23" height="23" rx="11.5" stroke="#535353" stroke-width="2"/>
<path d="M153.345 7.73465C152.539 5.55811 149.461 5.55811 148.655 7.73466L147.807 10.0276L145.514 10.8761C143.337 11.6815 143.337 14.7599 145.514 15.5653L147.807 16.4138L148.655 18.7068C149.461 20.8833 152.539 20.8833 153.345 18.7068L154.193 16.4138L156.486 15.5653C158.663 14.7599 158.663 11.6815 156.486 10.8761L154.193 10.0276L153.345 7.73465ZM148.023 16.4936C148.022 16.4935 148.022 16.4934 148.022 16.4934L148.023 16.4936L148.196 16.0247L148.023 16.4936ZM154.273 10.2432L154.273 10.2426C154.273 10.2428 154.273 10.243 154.273 10.2432L153.804 10.4167L154.273 10.2432Z" stroke="#535353" stroke-width="3"/>
<path d="M168.5 14.7635C168.5 14.7635 183.189 22.0517 200.184 17.7315C229.579 10.2591 272.825 0.220737 301 14.7635" stroke="#535353" stroke-width="3"/>
</svg>
