<svg width="50" height="51" viewBox="0 0 50 51" fill="none" xmlns="http://www.w3.org/2000/svg">
<path fill-rule="evenodd" clip-rule="evenodd" d="M18.0563 19.9792C17.3496 19.9792 16.6498 20.1184 15.9969 20.3888C15.3441 20.6592 14.7508 21.0556 14.2511 21.5553C13.7514 22.055 13.3551 22.6482 13.0846 23.3011C12.8142 23.954 12.675 24.6538 12.675 25.3604C12.675 26.0671 12.8142 26.7669 13.0846 27.4197C13.3551 28.0726 13.7514 28.6659 14.2511 29.1656C14.7508 29.6652 15.3441 30.0616 15.9969 30.3321C16.6498 30.6025 17.3496 30.7417 18.0563 30.7417H23.4375V25.4688C23.4367 25.3965 23.4367 25.3243 23.4375 25.2521V19.9792H18.0563ZM23.4375 16.8542H18.0563C16.6288 16.8542 15.2598 16.2871 14.2504 15.2777C13.241 14.2684 12.674 12.8994 12.674 11.4719C12.674 10.0444 13.241 8.67541 14.2504 7.66604C15.2598 6.65666 16.6288 6.0896 18.0563 6.0896H23.4375V16.8542ZM26.5625 6.0896V16.8542H31.9438C33.3529 16.8265 34.695 16.2472 35.6817 15.2409C36.6685 14.2345 37.2212 12.8813 37.2212 11.4719C37.2212 10.0625 36.6685 8.70928 35.6817 7.70293C34.695 6.69657 33.3529 6.11732 31.9438 6.0896H26.5625ZM31.9438 19.9771C30.5312 19.9769 29.1753 20.5321 28.1685 21.5229C27.1618 22.5137 26.5849 23.8606 26.5625 25.2729V25.4459C26.5798 26.5063 26.91 27.5379 27.5116 28.4113C28.1133 29.2847 28.9597 29.9607 29.9443 30.3547C30.929 30.7486 32.0082 30.8427 33.0462 30.6253C34.0842 30.4079 35.0349 29.8886 35.7787 29.1327C36.5226 28.3767 37.0265 27.4178 37.2271 26.3764C37.4278 25.335 37.3162 24.2575 36.9065 23.2793C36.4967 22.3011 35.8071 21.4658 34.9241 20.8783C34.0412 20.2908 33.0043 19.9772 31.9438 19.9771ZM18.0563 33.8667C16.9914 33.8663 15.9504 34.1816 15.0649 34.7729C14.1793 35.3642 13.489 36.2048 13.0812 37.1885C12.6734 38.1721 12.5665 39.2546 12.774 40.299C12.9815 41.3434 13.4941 42.3028 14.2468 43.0559C14.9996 43.809 15.9588 44.3219 17.0032 44.5298C18.0475 44.7376 19.13 44.6312 20.1138 44.2238C21.0976 43.8164 21.9385 43.1264 22.5301 42.2411C23.1217 41.3557 23.4375 40.3148 23.4375 39.25V33.8667H18.0563Z" fill="#FF8AB3"/>
</svg>
