<svg width="48" height="48" viewBox="0 0 48 48" fill="none" xmlns="http://www.w3.org/2000/svg">
<g clip-path="url(#clip0_33_38)">
<path d="M6.87927 10.6625L14.581 39.3019L26.8891 40.5629L37.9769 35.1766L35.4695 5.62124L6.87927 10.6625ZM31.2816 13.4753L31.4189 15.3476L31.4866 16.1191L17.7935 18.5336L18.7603 22.1479L31.8182 19.8455L31.8566 20.8151L32.6946 30.3986L32.7397 31.0415L25.8074 34.3371L25.8094 34.3488L25.7627 34.357L25.7517 34.363L25.751 34.3591L25.7471 34.3598L18.0406 33.6294L16.6028 28.073L20.1527 27.4471L20.909 30.2548L25.0895 30.6306L25.1051 30.6279L28.8902 28.8516L28.5195 24.1517L24.0889 24.9329L24.0882 24.929L16.1038 26.3369L13.4736 16.6154L13.2404 15.6802L31.177 12.5174L31.2816 13.4753Z" fill="#BC6684"/>
</g>
<defs>
<clipPath id="clip0_33_38">
<rect width="40.518" height="40.518" fill="white" transform="translate(0.561646 7.91931) rotate(-10)"/>
</clipPath>
</defs>
</svg>
