<svg width="36" height="40" viewBox="0 0 36 40" fill="none" xmlns="http://www.w3.org/2000/svg">
<g clip-path="url(#clip0_33_43)">
<path d="M31.9075 7.25916L8.73889 3.1739C6.99466 2.86635 5.33 4.03195 5.02245 5.77618L0.937191 28.9448C0.629637 30.6891 1.79524 32.3537 3.53947 32.6613L26.7081 36.7465C28.4523 37.0541 30.117 35.8885 30.4246 34.1442L34.5098 10.9756C34.8174 9.23137 33.6518 7.56671 31.9075 7.25916ZM17.5714 28.4438C17.0654 31.3136 15.1494 32.3263 12.6943 31.8934C10.4762 31.5023 9.39463 30.1307 8.98132 28.6258L11.4792 27.6614C11.7778 28.5081 12.0578 29.2294 13.0122 29.3977C13.9205 29.5578 14.5624 29.3045 14.8073 27.9157L16.4681 18.4969L19.2391 18.9855L17.5714 28.4438ZM23.3901 33.7793C20.8165 33.3256 19.3671 31.8077 18.8407 30.0589L21.3281 29.1538C21.7499 30.2258 22.4001 31.0802 23.7626 31.3204C24.9078 31.5223 25.746 31.0797 25.8864 30.2833C26.0535 29.3355 25.3624 28.8675 24.1907 28.084L23.5518 27.666C21.7006 26.4641 20.5668 25.1579 20.9649 22.9003C21.3316 20.8204 23.1964 19.5204 25.6647 19.9556C27.4287 20.2667 28.5845 21.1016 29.2096 22.8678L26.807 23.8693C26.4828 22.9367 26.0286 22.5105 25.2322 22.3701C24.4226 22.2273 23.8187 22.6502 23.7003 23.3215C23.554 24.1509 24.0083 24.5771 25.1079 25.3071L25.7468 25.7252C27.9256 27.1477 29.0663 28.4144 28.6578 30.7312C28.2191 33.2192 26.0163 34.2424 23.3901 33.7793Z" fill="#BC6684"/>
</g>
<defs>
<clipPath id="clip0_33_43">
<rect width="29.9423" height="34.2197" fill="white" transform="translate(5.95093 0.510559) rotate(10)"/>
</clipPath>
</defs>
</svg>
