<svg width="516" height="292" viewBox="0 0 516 292" fill="none" xmlns="http://www.w3.org/2000/svg">
<path d="M191.46 162.247L189.728 170.756C189.64 171.198 189.452 171.611 189.179 171.961C188.907 172.311 188.557 172.589 188.16 172.77L180.496 176.321L188.711 178.186C189.138 178.28 189.537 178.479 189.877 178.764C190.216 179.05 190.486 179.414 190.665 179.828L194.147 187.808L195.879 179.299C195.968 178.857 196.156 178.444 196.428 178.094C196.701 177.744 197.05 177.466 197.447 177.285L205.111 173.734L196.896 171.87C196.47 171.775 196.07 171.576 195.731 171.291C195.391 171.005 195.121 170.641 194.943 170.227L191.46 162.247Z" fill="#151314" stroke="#FF8AB3" stroke-width="2" stroke-linecap="round" stroke-linejoin="round"/>
<g clip-path="url(#clip0_106_2)">
<path d="M332.968 208.751L331.439 212.104C331.361 212.278 331.244 212.431 331.098 212.549C330.952 212.668 330.781 212.749 330.599 212.787L327.092 213.523L330.31 215.078C330.477 215.157 330.624 215.278 330.737 215.428C330.85 215.578 330.927 215.755 330.961 215.943L331.639 219.574L333.167 216.222C333.246 216.048 333.363 215.895 333.509 215.776C333.655 215.657 333.826 215.576 334.007 215.539L337.514 214.802L334.296 213.248C334.129 213.168 333.983 213.048 333.87 212.897C333.757 212.747 333.68 212.57 333.646 212.382L332.968 208.751Z" fill="#151314" stroke="#FF8AB3" stroke-width="2" stroke-linecap="round" stroke-linejoin="round"/>
</g>
<g clip-path="url(#clip1_106_2)">
<path d="M59.409 222.321L57.5532 226.391C57.4578 226.603 57.3156 226.788 57.1382 226.932C56.9608 227.076 56.7534 227.175 56.5329 227.22L52.2747 228.115L56.1821 230.002C56.3851 230.099 56.5626 230.245 56.7 230.428C56.8374 230.611 56.9307 230.825 56.9722 231.053L57.7954 235.462L59.6511 231.392C59.7465 231.18 59.8887 230.995 60.0661 230.851C60.2435 230.706 60.4509 230.608 60.6714 230.563L64.9296 229.668L61.0223 227.781C60.8192 227.683 60.6417 227.538 60.5043 227.355C60.367 227.172 60.2737 226.958 60.2321 226.73L59.409 222.321Z" fill="#151314" stroke="#FF8AB3" stroke-width="2" stroke-linecap="round" stroke-linejoin="round"/>
</g>
<g clip-path="url(#clip2_106_2)">
<path d="M172.829 55.7324L172.031 59.3291C171.99 59.5158 171.907 59.6895 171.789 59.836C171.671 59.9825 171.521 60.0976 171.351 60.1718L168.074 61.6211L171.545 62.4728C171.725 62.5162 171.893 62.6033 172.035 62.727C172.177 62.8506 172.288 63.0072 172.361 63.184L173.779 66.5947L174.577 62.998C174.617 62.8113 174.7 62.6376 174.819 62.4911C174.937 62.3446 175.087 62.2295 175.257 62.1553L178.534 60.706L175.063 59.8543C174.883 59.8109 174.715 59.7238 174.573 59.6001C174.431 59.4765 174.319 59.3199 174.247 59.1431L172.829 55.7324Z" fill="#151314" stroke="#FF8AB3" stroke-width="2" stroke-linecap="round" stroke-linejoin="round"/>
</g>
<g clip-path="url(#clip3_106_2)">
<path d="M458.828 99.7309L458.03 103.328C457.99 103.514 457.907 103.688 457.789 103.835C457.67 103.981 457.52 104.096 457.35 104.17L454.073 105.62L457.544 106.471C457.724 106.515 457.892 106.602 458.034 106.725C458.176 106.849 458.288 107.006 458.36 107.183L459.778 110.593L460.576 106.997C460.617 106.81 460.7 106.636 460.818 106.49C460.936 106.343 461.086 106.228 461.256 106.154L464.533 104.705L461.063 103.853C460.882 103.809 460.714 103.722 460.572 103.599C460.431 103.475 460.319 103.318 460.246 103.142L458.828 99.7309Z" fill="#151314" stroke="#FF8AB3" stroke-width="2" stroke-linecap="round" stroke-linejoin="round"/>
</g>
<g clip-path="url(#clip4_106_2)">
<path d="M317.936 90.5719L317.448 97.924C317.425 98.3054 317.314 98.674 317.124 98.9994C316.935 99.3248 316.673 99.5978 316.36 99.7959L310.32 103.654L317.44 104.286C317.809 104.317 318.167 104.439 318.485 104.64C318.803 104.842 319.072 105.117 319.269 105.445L323.106 111.758L323.593 104.406C323.617 104.025 323.728 103.656 323.918 103.331C324.107 103.005 324.369 102.732 324.682 102.534L330.722 98.676L323.602 98.0437C323.233 98.0125 322.874 97.8912 322.556 97.6898C322.238 97.4883 321.97 97.2126 321.773 96.8851L317.936 90.5719Z" fill="#151314" stroke="#FF8AB3" stroke-width="2" stroke-linecap="round" stroke-linejoin="round"/>
</g>
<path d="M263.564 101.615L250.402 129.147C249.725 130.578 248.718 131.828 247.465 132.794C246.211 133.759 244.746 134.414 243.19 134.703L213.134 140.434L240.666 153.596C242.097 154.272 243.347 155.279 244.313 156.533C245.279 157.786 245.933 159.252 246.222 160.808L251.953 190.863L265.115 163.331C265.791 161.9 266.798 160.651 268.052 159.685C269.306 158.719 270.771 158.064 272.327 157.775L302.382 152.044L274.85 138.883C273.419 138.206 272.17 137.199 271.204 135.946C270.238 134.692 269.583 133.227 269.294 131.671L263.564 101.615Z" fill="#151314" stroke="#FF8AB3" stroke-width="2" stroke-linecap="round" stroke-linejoin="round"/>
<defs>
<clipPath id="clip0_106_2">
<rect width="14" height="14.5385" fill="white" transform="translate(326.241 206.094) rotate(7)"/>
</clipPath>
<clipPath id="clip1_106_2">
<rect width="17" height="17.6538" fill="white" transform="translate(51.2413 219.094) rotate(7)"/>
</clipPath>
<clipPath id="clip2_106_2">
<rect width="14" height="14.5385" fill="white" transform="translate(165.697 54.532) rotate(-5)"/>
</clipPath>
<clipPath id="clip3_106_2">
<rect width="14" height="14.5385" fill="white" transform="translate(451.696 98.5305) rotate(-5)"/>
</clipPath>
<clipPath id="clip4_106_2">
<rect width="28" height="29.0769" fill="white" transform="translate(303.474 90.3594) rotate(-13.7119)"/>
</clipPath>
</defs>
</svg>
