<svg width="21" height="21" viewBox="0 0 21 21" fill="none" xmlns="http://www.w3.org/2000/svg">
<path d="M10.5 2.625L8.8375 7.7C8.75237 7.96356 8.6059 8.20316 8.41013 8.39908C8.21435 8.59501 7.97487 8.74167 7.71137 8.827L2.625 10.5L7.7 12.1625C7.96356 12.2476 8.20316 12.3941 8.39908 12.5899C8.59501 12.7856 8.74167 13.0251 8.827 13.2886L10.5 18.375L12.1625 13.3C12.2476 13.0364 12.3941 12.7968 12.5899 12.6009C12.7856 12.405 13.0251 12.2583 13.2886 12.173L18.375 10.5L13.3 8.8375C13.0364 8.75237 12.7968 8.6059 12.6009 8.41013C12.405 8.21435 12.2583 7.97487 12.173 7.71137L10.5 2.625Z" fill="#151314" stroke="#FF8AB3" stroke-width="2" stroke-linecap="round" stroke-linejoin="round"/>
</svg>
