<svg width="50" height="51" viewBox="0 0 50 51" fill="none" xmlns="http://www.w3.org/2000/svg">
<path d="M25 6.61041C15.7917 6.61041 8.33334 10.3396 8.33334 14.9437C8.33334 19.5479 15.7917 23.2771 25 23.2771C34.2083 23.2771 41.6667 19.5479 41.6667 14.9437C41.6667 10.3396 34.2083 6.61041 25 6.61041ZM8.33334 19.1104V25.3604C8.33334 29.9646 15.7917 33.6937 25 33.6937C34.2083 33.6937 41.6667 29.9646 41.6667 25.3604V19.1104C41.6667 23.7146 34.2083 27.4437 25 27.4437C15.7917 27.4437 8.33334 23.7146 8.33334 19.1104ZM8.33334 29.5271V35.7771C8.33334 40.3812 15.7917 44.1104 25 44.1104C34.2083 44.1104 41.6667 40.3812 41.6667 35.7771V29.5271C41.6667 34.1312 34.2083 37.8604 25 37.8604C15.7917 37.8604 8.33334 34.1312 8.33334 29.5271Z" fill="#FF8AB3"/>
</svg>
