<svg width="40" height="40" viewBox="0 0 40 40" fill="none" xmlns="http://www.w3.org/2000/svg">
<g clip-path="url(#clip0_33_48)">
<path d="M6.07019 0.842915C5.27895 0.745763 4.5631 1.30504 4.46595 2.09628L1.07421 29.7198C0.97706 30.511 1.53634 31.2269 2.32758 31.324L29.9511 34.7158C30.7423 34.8129 31.4582 34.2536 31.5553 33.4624L34.9471 5.83889C35.0442 5.04765 34.4849 4.33181 33.6937 4.23466L6.07019 0.842915ZM26.6016 15.9335C27.3788 16.0289 28.0614 16.1604 28.6506 16.3282C29.2068 16.4827 29.745 16.6957 30.2563 16.9637L29.873 20.0854C29.6375 19.8759 29.383 19.6888 29.1126 19.5267C28.8341 19.3578 28.5432 19.21 28.2426 19.0847C27.6729 18.8479 27.0744 18.6877 26.4627 18.6083C26.0817 18.5615 25.7306 18.5545 25.4091 18.5898C25.1233 18.6151 24.8434 18.6861 24.5801 18.8C24.348 18.9056 24.1634 19.044 24.0227 19.2137C23.8811 19.3847 23.7927 19.5935 23.7684 19.8142C23.7379 20.0631 23.7776 20.2962 23.8841 20.5104C23.9918 20.7247 24.1567 20.9358 24.3775 21.1433C24.5982 21.3509 24.8717 21.5598 25.1975 21.7726C25.5232 21.9866 25.8939 22.2114 26.3087 22.4453C26.8749 22.7688 27.3781 23.1014 27.8186 23.4404C28.259 23.7806 28.6275 24.1495 28.9243 24.5469C29.2211 24.943 29.4305 25.38 29.5548 25.8581C29.6792 26.3361 29.7056 26.877 29.6312 27.4828C29.5288 28.3172 29.2838 29.0001 28.8993 29.5278C28.5229 30.0487 28.0231 30.468 27.4448 30.748C26.8222 31.0434 26.1504 31.2214 25.4633 31.2731C24.7257 31.3372 23.9581 31.3203 23.1618 31.2226C22.3776 31.1298 21.6038 30.964 20.8505 30.7273C20.1978 30.5301 19.5769 30.2398 19.0071 29.8654L19.4172 26.5252C20.4451 27.6429 21.8349 28.3615 23.3412 28.554C23.7641 28.606 24.1384 28.6132 24.4627 28.5757C24.7883 28.5383 25.0643 28.4639 25.2929 28.3553C25.5206 28.2441 25.6978 28.1034 25.8259 27.9309C25.9689 27.7293 26.052 27.4913 26.0654 27.2445C26.0788 26.9977 26.0221 26.7522 25.9018 26.5363C25.7437 26.2634 25.5393 26.0202 25.2977 25.8175C24.9987 25.5617 24.679 25.331 24.342 25.1278C23.9431 24.8829 23.5394 24.6459 23.1311 24.417C22.0249 23.7874 21.2293 23.0851 20.7428 22.3124C20.2575 21.5399 20.0748 20.655 20.1969 19.6606C20.2926 18.8808 20.531 18.2306 20.9122 17.7089C21.2934 17.1872 21.7742 16.7782 22.3572 16.4824C22.9729 16.1766 23.6384 15.9836 24.3222 15.9128C25.0802 15.8295 25.8453 15.8365 26.6016 15.9335ZM7.37804 13.8155L19.5235 15.3068L19.1857 18.0577L14.8269 17.5225L13.3227 29.7734L9.87199 29.3497L11.3762 17.0988L7.04027 16.5664L7.37804 13.8155Z" fill="#BC6684"/>
</g>
<defs>
<clipPath id="clip0_33_48">
<rect width="34.8978" height="34.8978" fill="white" transform="translate(4.64139 0.66748) rotate(7)"/>
</clipPath>
</defs>
</svg>
